<svg id="25b744fb-bb94-4346-a31f-2bcd77a4e026" data-name="Layer 1" xmlns="http://www.w3.org/2000/svg" viewBox="0 0 778.43 535.43">
  <defs>
    <style>
      .eba0f0fb-4a7a-40b2-86bf-a4d4083050e0 {
        fill: #1da5de;
      }
    </style>
  </defs>
  <title>cloud9</title>
  <path class="eba0f0fb-4a7a-40b2-86bf-a4d4083050e0" d="M798.92,616.46l85,40.67c-11.47,57-46,93.06-100,111.33-80.34,19.33-138.89-8.21-177.67-78.33-19.1-40.51-20.17-85.36,4.67-136.45,22.34-36.71,54.23-60.06,95.33-70.55,34.26-6.52,65.09-4.53,91.67,8l162.41,77.58L1037.58,406c7.22-28.55-.68-48.37-16.83-63.41-12.53-11.38-28.45-17.62-50.17-15.09-16.51,4.3-31.63,11.86-42.33,29.67-5.87,10.63-9,24.14-5.5,44.83,3.82,12.59,10.73,24.77,27.17,35.67,6.9,5.49,18.28,9,39.83,8.17L950.58,531c-60.38-13-98-52.77-115.58-115.91q-7.87-57.51,16.75-101.25c16.07-27.19,34.56-44.65,54.75-55.25,19.55-11.32,41.92-19.33,71-19.5,34.71,1.25,66,8.26,89.75,27.75,24.39,18.26,40.37,39.24,49.25,62.5,11.5,27,17.53,56.76,6.5,95.25a118.19,118.19,0,0,1-7.75,22.25l-75,158.66,161.67,77.34c31.86,8,54.33.28,69.33-20,10.83-19,15.54-38,8-57-7.33-15.73-17.13-28.2-32-34-19.28-6.18-37.11-6.18-53,2-19.12,12.77-29.57,29.51-30.33,50.66v11.67l-85-40c8.26-35.69,25-64.84,53-85.33,21.72-18.18,49.43-28.82,83.33-31.67,37.67,1,70.26,8.48,93.67,27.63,30.26,22,51.53,51.61,59.66,92.37,4.75,39.86,1,72.64-14.33,95.67-18.51,33.89-46.17,61.23-92.33,75.33-43.77,7.7-77.83,3.84-102.67-11l-273-129L761.92,571.8c-33.36-9.6-59.65-.74-77,31.43-8.78,27.62-3.9,49.3,12.66,65.9,19.37,17.44,41.46,23.66,68,11.67,17.61-7.88,28.4-21.71,33.34-40.67C798.58,641.13,798.92,616.46,798.92,616.46Z" transform="translate(-592.08 -239.05)"/>
</svg>
