<?xml version="1.0" encoding="utf-8"?>
<!-- Generator: Adobe Illustrator 22.0.1, SVG Export Plug-In . SVG Version: 6.00 Build 0)  -->
<svg version="1.1" id="Layer_1" xmlns="http://www.w3.org/2000/svg" xmlns:xlink="http://www.w3.org/1999/xlink" x="0px" y="0px"
	 viewBox="0 0 1920 1080" style="enable-background:new 0 0 1920 1080;" xml:space="preserve">
<style type="text/css">
	.st0{fill:#1DA5DE;}
</style>
<path class="st0" d="M754.6,677.7l85,40.7c-11.5,57-46,93.1-100,111.3c-80.3,19.3-138.9-8.2-177.7-78.3
	c-19.1-40.5-20.2-85.4,4.7-136.5c22.3-36.7,54.2-60.1,95.3-70.5c34.3-6.5,65.1-4.5,91.7,8L916,629.9l77.3-162.7
	c7.2-28.5-0.7-48.4-16.8-63.4c-12.5-11.4-28.4-17.6-50.2-15.1c-16.5,4.3-31.6,11.9-42.3,29.7c-5.9,10.6-9,24.1-5.5,44.8
	c3.8,12.6,10.7,24.8,27.2,35.7c6.9,5.5,18.3,9,39.8,8.2l-39.2,85.2c-60.4-13-98-52.8-115.6-115.9c-5.3-38.3,0.3-72.1,16.8-101.3
	c16.1-27.2,34.6-44.6,54.8-55.3c19.5-11.3,41.9-19.3,71-19.5c34.7,1.3,66,8.3,89.8,27.8c24.4,18.3,40.4,39.2,49.3,62.5
	c11.5,27,17.5,56.8,6.5,95.3c-2,8.7-4.9,16-7.8,22.3l-75,158.7l161.7,77.3c31.9,8,54.3,0.3,69.3-20c10.8-19,15.5-38,8-57
	c-7.3-15.7-17.1-28.2-32-34c-19.3-6.2-37.1-6.2-53,2c-19.1,12.8-29.6,29.5-30.3,50.7l0,11.7l-85-40c8.3-35.7,25-64.8,53-85.3
	c21.7-18.2,49.4-28.8,83.3-31.7c37.7,1,70.3,8.5,93.7,27.6c30.3,22,51.5,51.6,59.7,92.4c4.8,39.9,1,72.6-14.3,95.7
	c-18.5,33.9-46.2,61.2-92.3,75.3c-43.8,7.7-77.8,3.8-102.7-11l-273-129L717.6,633c-33.4-9.6-59.6-0.7-77,31.4
	c-8.8,27.6-3.9,49.3,12.7,65.9c19.4,17.4,41.5,23.7,68,11.7c17.6-7.9,28.4-21.7,33.3-40.7C754.2,702.4,754.6,677.7,754.6,677.7z"/>
</svg>
