<?xml version="1.0" encoding="utf-8"?>
<!-- Generator: Adobe Illustrator 22.0.1, SVG Export Plug-In . SVG Version: 6.00 Build 0)  -->
<svg version="1.1" id="fnatic" xmlns="http://www.w3.org/2000/svg" xmlns:xlink="http://www.w3.org/1999/xlink" x="0px" y="0px"
	 viewBox="0 0 1920 1080" style="enable-background:new 0 0 1920 1080;" xml:space="preserve">
<style type="text/css">
	.st0{stroke:#000000;stroke-miterlimit:10;}
	.st1{stroke:#000000;stroke-width:0.25;stroke-miterlimit:10;}
	.st2{fill:#FFFFFF;stroke:#000000;stroke-width:0.25;stroke-miterlimit:10;}
	.st3{fill:#F09D45;}
</style>
<g id="fnatic_x5F_logo">
	<polygon id="f" class="st0" points="596.7,857.2 596.7,962.3 625.2,962.3 625.2,923 667.3,923 667.3,896.9 626.9,896.9 
		626.9,881.8 679.7,881.8 679.7,857.2 	"/>
	<path id="n" class="st1" d="M699.1,857.2v105.2h26.1v-80.6l41.9,0c3.8,2.2,4.5,7.3,4.7,12.8v67.8h29.5v-83
		c-3.4-11.8-11-18.9-21.9-22.1H699.1z"/>
	<path id="a" class="st1" d="M922,857.2v105.2h-27.7V936h-46.6v26.3h-26.5l0-83.6c-0.1-13.5,7.6-20.3,21.7-21.5H922z"/>
	<path id="a_x5F_inner" class="st2" d="M848.1,916.7h47v-34.9l-38.3,0c-5.9,0-9.2,2.3-8.7,7.6V916.7z"/>
	<polygon id="t" class="st1" points="936.5,881.8 948.9,857.2 1036.7,857.2 1027.2,881.8 1002.9,881.8 1002.9,962.3 972.7,962.3 
		972.7,881.8 	"/>
	<rect id="i" x="1048" y="857.2" class="st1" width="28.5" height="105.2"/>
	<path id="c" class="st1" d="M1176.1,857.2h-62.9c-11.2,4.3-20.5,9.6-19.6,20.2l-0.1,64c2.6,9.6,10.4,16.6,23.2,21l61.7,0v-22.7
		h-48.8c-5.9-0.4-9.9-3-11-9.3v-42.4c0.4-5.3,3.3-8,10.1-7.1h35.9L1176.1,857.2z"/>
	<path id="orange_x5F_right" class="st3" d="M1211.6,423.7c15.9-7.3,30.3-15.9,33.2-35.6c2.4-17.9-0.9-30.6-7.5-40.3
		c-36.5-29.7-116.9-50.3-224.4-65.2h-65.8c-27.2,3.7-47,14.7-48.6,43.4c6.6,212.9,118.1,357.1,265.1,477.8c5,3.9,10,5.6,14.8,0
		c13.4-35.1,22.4-73.2,18.4-119.8c-1.6-11.8-5.1-23.7-10.1-35.6c-7-6-14.5-4.9-22.4,1.6c-19.9,8.2-35.1,5.9-46.7-4.5
		c-36.4-40-70.6-102.9-103.1-182c-8.9-26.1-16.5-53.3-22.9-81.4c-1.4-9.3,0.6-15.3,9.2-15C1134.4,378,1224,394.4,1211.6,423.7z"/>
	<circle id="circle_x5F_top" class="st3" cx="885.2" cy="240.5" r="35.6"/>
	<path id="orange_x5F_left" class="st3" d="M824.6,282.6h-65.8c-107.5,14.9-187.9,35.5-224.4,65.2c-6.6,9.7-9.9,22.4-7.5,40.3
		c2.9,19.6,17.3,28.3,33.2,35.6c-12.3-29.3,77.3-45.7,210.8-56.5c8.5-0.3,10.6,5.7,9.2,15c-6.5,28.1-14.1,55.3-22.9,81.4
		c-1.2,2.9-7.8,16.3-17.3,34.5c-23,19.1-47,33-72.5,38.8c-22.1,3.7-38,18.3-48,43.6l2.4,12.5l74.8-14.3
		c-16.8,29.9-33.1,56.5-42.5,66.9c-11.6,10.4-26.8,12.6-46.7,4.5c-7.9-6.6-15.4-7.7-22.4-1.6c-5,11.9-8.5,23.8-10.1,35.6
		c-4,46.6,4.9,84.7,18.4,119.8c4.8,5.6,9.8,3.9,14.8,0C755.2,683,866.6,538.9,873.2,326C871.6,297.2,851.8,286.3,824.6,282.6z"/>
	<path id="orange_x5F_bot" class="st3" d="M909.9,807.4h-49.4c-1.6,0-2.9-1.3-2.9-2.9V520c0-1.6,1.3-2.9,2.9-2.9h49.4
		c1.6,0,2.9,1.3,2.9,2.9v284.5C912.8,806.1,911.5,807.4,909.9,807.4z"/>
</g>
</svg>
