<?xml version="1.0" encoding="utf-8"?>
<!-- Generator: Adobe Illustrator 22.0.1, SVG Export Plug-In . SVG Version: 6.00 Build 0)  -->
<svg version="1.1" id="liquid" xmlns="http://www.w3.org/2000/svg" xmlns:xlink="http://www.w3.org/1999/xlink" x="0px" y="0px"
	 viewBox="0 0 1920 1080" style="enable-background:new 0 0 1920 1080;" xml:space="preserve">
<style type="text/css">
	.st0{fill:#0D2240;}
</style>
<g id="team_x5F_liquid_2_">
	<path class="st0" d="M1000.1,530c-9,62.6-9.5,117.8,11.5,154.4c12.5,26,31,42.5,54.9,50.3l157.4,200.2
		c56.7-43.6,105.4-94.7,124.7-172.8c16-68.7,23.8-177.4,23.6-323.9l0-177.2L987,127.6c-18.6,60.2-22,116.1-3.4,166.2l94.2-100
		c18.3,22.2,25.2,48,14.8,79.4c-4.4,15.3-17,31.8-35.4,49.2l133.5,93.4l11.5,7.4c-2.1,21.2-3.2,41-1.1,56.3l110.4,210.7l-55.2,64.5
		l-80.5-44.2l37.6,62.3l-54.1,1.4l-42.3-104.1l-81.3-33.8C1012.1,611.6,1002.5,574.1,1000.1,530z"/>
	<path class="st0" d="M1229.3,667.1c11.7,13.4,26.8,23.2,47.8,27.1h-35.5L1229.3,667.1z"/>
	<path class="st0" d="M1109.7,435.8l37.9,25.3l15.1,17.9c-7.9,3.7-17.8,4.8-29.4,3.6L1109.7,435.8z"/>
	<path class="st0" d="M870.6,337.8c18-11.6,35.6-21,52-26.4c-18.9-52.9-33.4-107.6-44.1-163.5l-89.5,30.2
		C809.2,233,836.9,286.1,870.6,337.8z"/>
	<path class="st0" d="M822.4,374.8l-39.6,40.1c-81.8-56-145-112.1-189.5-168.1L695,210C734.3,263.1,777,318.1,822.4,374.8z"/>
	<path class="st0" d="M747.1,459.4l-28.6,52.8c-58.6-11.7-115.4-27.8-170.8-47.2V351.2C605.6,392.2,670.7,429.1,747.1,459.4z"/>
	<path class="st0" d="M695.3,567.3c-6.3,21.7-11.2,42.1-13.2,59.7c-43,10.8-85.5,18.6-127.4,22.9l-3.7-89.4L695.3,567.3z"/>
	<path class="st0" d="M675.8,697.1l2.8,73.6l-78.7,56.2c-14.4-25.3-25.9-53-31.9-85.5L675.8,697.1z"/>
	<path class="st0" d="M695.5,856l-37.7,44.3c18.7,19.2,40.8,36.6,66.7,52L695.5,856z"/>
</g>
</svg>
