<?xml version="1.0" encoding="utf-8"?>
<!-- Generator: Adobe Illustrator 22.0.1, SVG Export Plug-In . SVG Version: 6.00 Build 0)  -->
<svg version="1.1" id="optic" xmlns="http://www.w3.org/2000/svg" xmlns:xlink="http://www.w3.org/1999/xlink" x="0px" y="0px"
	 viewBox="0 0 1920 1080" style="enable-background:new 0 0 1920 1080;" xml:space="preserve">
<style type="text/css">
	.st0{fill:#9DC63A;}
</style>
<g id="optic_x5F_logo">
	<path id="green_x5F_o" class="st0" d="M748.4,750h647V535.7h-107.7v134.6H856.1c2.3-66.3,26-116.9,65-156.4
		c29.4-27.1,63.8-46.3,103.9-56.5c10.7-2.7,21.1-4.3,30.9-4.4h339.5v-80h-350.6c-59.6,2.2-109.9,16.6-151.2,43
		c-39.4,26.7-76,63.2-105.4,124.9c-21.8,47.2-33,100.5-37.8,157.5L748.4,750z"/>
	<path id="black_x5F_o" d="M923.1,251.9c-65.6,2.5-127.3,23-182.4,75c-32.6,32.7-57.2,70.4-75,112.3c-14.3,35-23.5,73.5-29.5,114
		l-4.9,78h128.7c6.9-29.1,14.8-56.2,24-80.6h-44.9v-25.2c4.4-39.3,17.4-67.7,31.8-94.5c37.8-58.1,89.5-88.2,150.9-98.2
		c1.4-0.3,249.2,0,249.2,0l-1.4,26.1c-8.7,62.9-30.4,101.2-58.4,127.5c-38.8,38-86.8,62-148.9,64.4h-72.1
		c-15.3,16.7-23.3,46-29.7,80.6h120.8c88.1-2.1,153.3-27.2,200.4-70.6c38-39.1,62-80.1,72.5-121.2c13.8-42.6,20-88.7,23.5-136
		l1.4-51.6H923.1z"/>
</g>
</svg>
