<?xml version="1.0" encoding="utf-8"?>
<!-- Generator: Adobe Illustrator 22.0.1, SVG Export Plug-In . SVG Version: 6.00 Build 0)  -->
<svg version="1.1" id="riot_x5F_fist" xmlns="http://www.w3.org/2000/svg" xmlns:xlink="http://www.w3.org/1999/xlink" x="0px"
	 y="0px" viewBox="0 0 1920 1080" style="enable-background:new 0 0 1920 1080;" xml:space="preserve">
<style type="text/css">
	.st0{stroke:#000000;stroke-width:15;stroke-miterlimit:10;}
</style>
<g>
	<path id="thumb" class="st0" d="M857.8,841.1c66.9-11,151.4-37.4,249.4-75.6c-2.1,21.2-18.8,47.7-53.8,80.7l-63,50l-11.7,7.9
		c-13.5,8.6-27.2,7.5-40.8,0L857.8,841.1z"/>
	<path id="hand" class="st0" d="M554.2,435.6l46,63.3l26.6,35c46.5,60.7,85.3,119.7,106.4,174.7l23.6,47.1
		c19.3,40.5,53.6,52.3,99.2,42.6l56.7-18.4c-33.9-44.6-60.4-94.9-72-152.2c-10-32.7-15.3-70.7-18.4-111.4
		c27.3,89.5,58,153.7,90.4,200.4l37.5,48.7l107.6-32.9c-33-41-59-80.1-66.2-113.9c-9.2-32.2-14.3-66.8-16.5-103.2
		c20.1,60,44.8,110.1,75.6,147.5l44.3,54.8c33.1-12.9,61.3-26.3,81-40.5c-26.3-31.9-45.9-75.5-54.8-138l-2.5-59.8
		c13.1,53.5,32.1,103,57.3,148.5l26.3,38.6l73.4-43.7l21.2-16.5c13.9-12,16.1-26.8,6-44.3c-36.3-74.5-54.8-141.8-33.9-193.4
		c3.8-5.2,4.2-10.5-0.4-15.6l-101.4-84.2c-5-3.8-9.5-3.6-13.4,1.5l-60.7,70.9l-91.4-50.2l-86.5,73.4L752.6,235.6l-108,145.6
		C620.3,405.7,592,425.8,554.2,435.6z"/>
</g>
</svg>
