<?xml version="1.0" encoding="utf-8"?>
<!-- Generator: Adobe Illustrator 22.0.1, SVG Export Plug-In . SVG Version: 6.00 Build 0)  -->
<svg version="1.1" id="tsm" xmlns="http://www.w3.org/2000/svg" xmlns:xlink="http://www.w3.org/1999/xlink" x="0px" y="0px"
	 viewBox="0 0 1920 1080" style="enable-background:new 0 0 1920 1080;" xml:space="preserve">
<style type="text/css">
	.st0{stroke:#000000;stroke-width:0.75;stroke-miterlimit:10;}
</style>
<path id="M" d="M1039.5,940.2c27.1-3.8,53.9-10.6,80-24.3l0.7-638l38.3,27.3l0,590.5c28-12.8,54.8-31.6,79.6-60.4V402.9
	c20.8,38.4,36.1,79.7,37.6,128.6v258c61.3-76.2,88.2-174.5,77.4-297.1c-30.3-137.8-94.4-217.9-174.7-270.5
	c-50.7-31-97.3-50.5-139-56.8V940.2z"/>
<path id="S" d="M872.3,940.4v-460l-224.1,0c25.6-85.3,72.1-153.4,147.4-197.6l1.5,153.3l75.2,1.5V164.9
	C678.5,225.2,567.9,351,561.2,558.5l234.4-5.9l0,271.3c-57.7-23.8-102.8-70.8-132.7-146l95.8-1.5l1.5-79.6l-199,0.7
	C594.5,766.9,682,893.9,872.3,940.4z"/>
<path id="T" class="st0" d="M911.4,1066.4h78.9V119.2c231.9,41.1,370.2,171.5,394.4,410.6c-4,236.5-112.2,394.3-353.8,451.1
	l-0.2,80.7c238.9-49.7,372.6-198.1,430.7-417.7c11.4-288.9-92.4-443.1-249.9-534.4C1034.2,12.9,837.2,6.3,629.8,147.2
	C432.7,343.4,381,564,505.9,813.9c92,131.7,206.8,224,362.7,245.5l1.1-79.6c-186-38.3-302.6-158.4-350.5-359.4
	c-21.5-139.1,15-275.5,159.2-406.9c69.8-53,146.7-85.7,232.2-94L911.4,1066.4z"/>
</svg>
