<?xml version="1.0" encoding="utf-8"?>
<!-- Generator: Adobe Illustrator 22.0.1, SVG Export Plug-In . SVG Version: 6.00 Build 0)  -->
<svg version="1.1" id="Logo" xmlns="http://www.w3.org/2000/svg" xmlns:xlink="http://www.w3.org/1999/xlink" x="0px" y="0px"
	 viewBox="0 0 1920 1080" style="enable-background:new 0 0 1920 1080;" xml:space="preserve">
<style type="text/css">
	.st0{stroke:#000000;stroke-miterlimit:10;}
	.st1{fill:#FFFFFF;stroke:#000000;stroke-miterlimit:10;}
	.st2{fill:#FFFFFF;}
</style>
<path id="Background" class="st0" d="M723,158.5h63.5l27.3-47.5l42.5,47.5H867l30.5-39l23.8,18.5c24.7-16.2,50.3-16.8,77,1
	l23.8-19.8c12.3,13.4,23.6,26.4,31.3,39.3h10.9l41.6-47.5l28,47.5l64.8,0.4c6.5,105-20.3,198-80.6,278.9v223.8h96.5l-6,104.8
	l-95,17.5c-32.7,50.3-84.6,92.4-153.5,127.3c-71.3-34.9-119.9-78.5-154-127.5l-94-17.3l-6.5-105l96.8,0.5l0.5-224
	C749,371.2,716.6,283.8,723,158.5z"/>
<path id="white_x5F_underline" class="st1" d="M722.9,755.1h102c16.8,47.2,67.7,87.5,135.1,123.4c70.8-39.4,120.1-80.2,135-123.4
	l102.2,0l-94,16.1c-19,39.7-60.9,80.9-143.2,125c-83.9-45-123.6-85.6-143.3-124.3L722.9,755.1z"/>
<polygon id="white_x5F_side_x5F_left" class="st1" points="820.5,661.5 838,661.5 838.3,481.8 820.5,460.5 "/>
<polygon id="white_x5F_side_x5F_right_1_" class="st1" points="1101.2,661.5 1083.7,661.5 1083.5,481.8 1101.2,460.5 "/>
<path id="inner_x5F_white" class="st1" d="M854.5,631.1l15.9-24.4h23.3l-20.3-34.9c27-19.2,46.8-39.2,52.4-60.9v-23
	c-4.9-11.1-12.5-16.3-26.3-7.8c-5.7-6.3-10.2-13.7-10.5-25l11.8-8.5l-50-11.5c-36.5-38.7-68.7-84.8-82.6-162.8l24.3,26
	c-12.4-32.2-20.2-65.1-19.3-99.3h30.3l15.3-26.7c6,52.3,16.5,90.9,35.3,104c-5.8-25.4-9.5-51.2-10.7-77.3l48.7,0.7
	c1.2-14,3.2-26.8,10.7-34l25.5,19.1c7-13.7,16-24,30.7-24c15.9,0.2,27.7,6.8,32.7,24.2l25.7-19.8c6.5,7,10.6,17.3,10.2,33.7h49.8
	c0.9,19.5-1.3,43.3-11,77.7c23.5-25.7,33.5-62.5,36.7-105c0,0,14.2,26.8,14.7,27.2s29.8,0,29.8,0c-1.2,38-7.3,71.2-18.8,99.2
	l24-24.8c-10.4,58-35.2,112.7-82.5,162.2l-50.3,10.8l11.8,9.1c-0.4,11.4-3.3,20.4-10.9,25.3c-9.1-6.2-17.7-7.7-24.8,6.1v25.6
	c5.4,19.6,21.1,39.3,52,58.9l-20.3,34.8h22l17,26.5V491.9l-21.4,10.9c88.6-95.9,145.6-201.2,134.1-326.9h-56l-20.7-35.3l-30,34
	h-31.3c-5.9-13.1-13-23.6-21.3-31.5L998,160.7c-10-10.4-21.9-16.9-36.7-18.2c-15.1,1.5-28.1,6.9-38.2,17.8l-23-17.5
	c-8.5,9.2-16.3,19.6-22.2,33h-29.5l-30.3-35.3l-21.5,35.2l-57.2,0c-4.5,110,31.7,219,135.3,326.3l-20.9-10.6L854.5,631.1z"/>
<path id="person_x5F_outline" class="st1" d="M960.4,457.3l0-46l44.2-25.3v-18.8l26.2,36.5c4.7,6.3,13.1,9.6,24.2,10.7
	c16.3-4.9,25-13.1,26.7-24.5c0.6-9.8,0.8-19.4-9-27.3l-66.7-54.8c-1.2-1.5-3.2-1.8-5.7-1.3h-40.4c-9.4-13.9-21.2-25.8-38.7-32.9
	c3-11.8,6.3-22.5,10.1-30.9c7-11.7,15.4-19.6,29.2-11.5v-28c11.3-0.6,19.6,6.7,25,21.3c11.7,29.5,20.4,49.1,23.8,51.7l-13.7,18.4
	l39.2,5.9l-5.2,8.3l47,40.6l-36.9-41.5l8.1-13.6l-38.8-5.5l9.5-10.8c-8-12.8-15.2-28.9-22.2-46.6c-10.9-29.9-22.1-35.1-33.5-36
	c-13.5,0-24.9,9.9-33.5,32.5c-6.5,17.8-13.8,34.2-21.8,49.2l10.5,15.3l-38.7,5.3l6.7,11.2L843,349.7l18,1.7
	c-11.3,8.1-21.1,16.9-22.8,30.2c0.3,18.7,9.2,30.4,29.7,32.7c11.1-1.2,20.6-5.4,26.3-16l13.8-19.7
	C931.1,401.6,947.8,428.4,960.4,457.3z"/>
<path id="face" class="st1" d="M941.3,241c12.1,2.6,24.6,2.7,37.5,0l-1.3,13.5c-5.7,7-10.1,13.7-9.2,19.7
	c-5.2,4.7-10.4,5.1-15.7,1.2c-0.4-7.2-2.4-14.4-9.7-21.5L941.3,241z"/>
<path id="left_x5F_arm" class="st0" d="M969.7,315.5l29.8,0.7l66,54.2c5.6,8.1,8.4,16.3,2,25c-7.2,9.4-16.7,12.2-29.7,4.5
	l-35.2-47.2v-18.2L969.7,315.5z"/>
<path id="right_x5F_arm" class="st0" d="M916.3,334.5v18.2l-35.2,47.2c-13,7.7-22.4,4.9-29.7-4.5c-6.4-8.7-3.6-16.9,2-25l66-54.2
	l29.8-0.7L916.3,334.5z"/>
<polygon id="hexagon" class="st0" points="924.8,340.2 960.2,320 995.2,340.2 995.2,381 960,401 924.8,380.7 "/>
<polygon id="triangle" class="st1" points="960.6,332.1 960.6,358.9 937.9,343.4 "/>
<g>
	<g>
		<path class="st2" d="M922,584.2l11.1-14.9c0.6-0.8,1.1-1.7,1.5-2.6c0.4-0.9,0.5-1.8,0.5-2.6v0c0-1.3-0.4-2.3-1.1-3
			s-1.8-1.1-3.2-1.1c-1.3,0-2.4,0.4-3.2,1.2c-0.8,0.8-1.3,1.9-1.5,3.3v0h-4.6v0c0.3-1.8,0.8-3.4,1.6-4.7c0.8-1.3,1.9-2.3,3.2-3
			c1.3-0.7,2.8-1,4.5-1c1.9,0,3.5,0.3,4.9,1c1.3,0.7,2.4,1.6,3.1,2.8c0.7,1.2,1.1,2.7,1.1,4.5v0c0,1.1-0.2,2.3-0.7,3.5
			s-1.1,2.4-2,3.6l-9.3,12.6H940v4.3h-18V584.2z"/>
		<path class="st2" d="M948,586c-1.5-1.6-2.3-3.8-2.3-6.7v-14.5c0-2.9,0.8-5.1,2.3-6.7c1.6-1.6,3.8-2.4,6.8-2.4c3,0,5.3,0.8,6.8,2.4
			c1.5,1.6,2.3,3.8,2.3,6.7v14.5c0,2.9-0.8,5.1-2.3,6.7c-1.6,1.6-3.8,2.4-6.8,2.4C951.8,588.4,949.6,587.6,948,586z M958.3,582.9
			c0.8-0.8,1.1-2,1.1-3.6v-14.5c0-1.6-0.4-2.7-1.1-3.6c-0.7-0.8-1.9-1.2-3.5-1.2s-2.8,0.4-3.5,1.2c-0.7,0.8-1.1,2-1.1,3.6v14.5
			c0,1.6,0.4,2.7,1.1,3.6c0.8,0.8,1.9,1.2,3.5,1.2S957.6,583.7,958.3,582.9z"/>
		<path class="st2" d="M978.3,588.1h-4.5V561l-4.5,2.8v-4.6l4.5-3h4.5V588.1z"/>
		<path class="st2" d="M988.9,587.3c-1.3-0.8-2.3-1.9-3-3.3c-0.7-1.4-1-3.2-1-5.2v0c0-1.2,0.1-2.4,0.4-3.7c0.3-1.3,0.7-2.6,1.2-3.8
			c0.1-0.2,0.2-0.4,0.3-0.6c0.1-0.2,0.2-0.4,0.3-0.6l6.9-13.8h4.8l-8.2,15.9l0-0.8c0.4-0.7,0.9-1.2,1.6-1.6s1.5-0.6,2.5-0.6
			c1.7,0,3.1,0.4,4.3,1.1c1.2,0.7,2.1,1.8,2.7,3.3c0.6,1.4,0.9,3.1,0.9,5.2v0c0,2.1-0.3,3.8-1,5.3c-0.7,1.5-1.7,2.6-3.1,3.3
			c-1.3,0.8-2.9,1.1-4.8,1.1S990.3,588,988.9,587.3z M997,582.8c0.8-0.9,1.2-2.1,1.2-3.8v0c0-1.8-0.4-3.2-1.2-4.1
			c-0.8-1-2-1.5-3.4-1.5c-1.3,0-2.4,0.5-3.1,1.5s-1.1,2.4-1.1,4.2v0c0,1.6,0.4,2.9,1.2,3.7c0.8,0.9,1.9,1.3,3.3,1.3
			C995.2,584.1,996.3,583.7,997,582.8z"/>
	</g>
</g>
<g>
	<g>
		<path class="st2" d="M735.2,729.6c0,0-1.3-0.7-3.9-2.1c-2.6-1.4-4.6-3.5-5.9-6.2c-1.4-2.7-2.1-5.9-2.1-9.8V689
			c0-3.8,0.7-7.1,2.1-9.8c1.4-2.7,3.3-4.8,5.9-6.2c2.6-1.4,5.7-2.1,9.3-2.1c3.6,0,6.6,0.7,9.1,2.1s4.4,3.6,5.7,6.5
			c1.4,2.9,2.2,6.5,2.4,11h-10.6c-0.2-2.1-0.5-3.8-1-5.2c-0.5-1.4-1.3-2.4-2.2-3c-0.9-0.7-2.1-1-3.3-1c-1.4,0-2.6,0.3-3.6,0.9
			c-1,0.6-1.8,1.5-2.3,2.6c-0.5,1.2-0.8,2.5-0.8,4.2v22.6c0,1.6,0.3,3,0.8,4.2c0.5,1.1,1.3,2,2.3,2.6c1,0.6,2.2,0.9,3.6,0.9
			c1.3,0,2.4-0.3,3.4-1c0.9-0.7,1.7-1.7,2.2-3c0.6-1.4,0.9-3.1,1-5.2h10.6c-0.3,4.4-1.1,8.1-2.5,11c-1.4,2.9-3.3,5-5.7,6.5
			c-2.4,1.4-5.5,2.1-9,2.1C737,729.6,735.2,729.6,735.2,729.6z"/>
		<path class="st2" d="M769.3,671.5h10.3V729h-10.3V671.5z M789.2,702.2c0-1.7-0.4-3-1.3-3.9c-0.9-0.9-2.1-1.3-3.6-1.3
			c-1.5,0-2.7,0.4-3.5,1.3c-0.8,0.9-1.2,2.2-1.2,3.8l-0.7-7.1c1-2.5,2.3-4.5,4-5.8s3.6-2,5.9-2c3.4,0,6.1,1.2,8,3.5
			c1.9,2.4,2.8,5.7,2.8,10V729h-10.3V702.2z"/>
		<path class="st2" d="M813.8,726.5c-1.9-2.1-2.8-5.1-2.8-9.1c0-4.2,1.2-7.4,3.6-9.6s5.9-3.3,10.6-3.3h6.6l0.6,8h-6.9
			c-1.6,0-2.8,0.4-3.7,1.2c-0.8,0.8-1.2,2-1.2,3.6c0,1.3,0.4,2.2,1.1,2.8c0.8,0.6,1.9,0.9,3.4,0.9c2.1,0,3.7-0.4,4.8-1.1
			c1.1-0.7,1.6-1.8,1.6-3.2l0.8,4.7c-0.1,1.7-0.6,3.2-1.5,4.4c-0.9,1.2-2.1,2.1-3.6,2.7c-1.5,0.6-3.1,0.9-4.9,0.9
			C818.5,729.6,815.7,728.6,813.8,726.5z M831.5,701.2c0-1.5-0.5-2.6-1.4-3.4c-0.9-0.8-2.2-1.2-3.9-1.2c-1.2,0-2.4,0.3-3.4,0.8
			s-1.8,1.3-2.4,2.3l-8-3.3c0.8-2.9,2.4-5.1,4.9-6.7c2.4-1.6,5.4-2.4,9.1-2.4c3.1,0,5.7,0.5,7.9,1.6c2.2,1.1,3.9,2.7,5,4.7
			c1.2,2.1,1.7,4.5,1.7,7.4V729h-9.5V701.2z"/>
		<path class="st2" d="M853.8,687.9h10.4V729h-10.4V687.9z M874,702.6c0-1.8-0.4-3.3-1.3-4.3c-0.9-1-2.1-1.5-3.8-1.5
			c-1.5,0-2.7,0.4-3.5,1.3c-0.8,0.9-1.2,2.2-1.2,3.8l-0.8-7.1c1-2.5,2.4-4.4,4.1-5.7c1.7-1.3,3.7-2,5.9-2c2.3,0,4.3,0.5,5.9,1.6
			c1.6,1.1,2.9,2.6,3.7,4.7c0.9,2.1,1.3,4.5,1.3,7.4v28H874V702.6z M894.2,702.6c0-1.8-0.4-3.3-1.3-4.3c-0.9-1-2.1-1.5-3.7-1.5
			s-2.8,0.5-3.7,1.4c-0.9,1-1.3,2.3-1.3,4.1l-1.3-7.4c1.1-2.5,2.6-4.4,4.4-5.8c1.8-1.4,3.9-2,6.1-2c2.3,0,4.3,0.6,6,1.7
			c1.6,1.1,2.9,2.7,3.8,4.8s1.3,4.7,1.3,7.7V729h-10.4V702.6z"/>
		<path class="st2" d="M917.4,687.9h10.3v57.7h-10.3V687.9z M930.6,727.8c-1.6-1.2-2.7-3-3.5-5.2l0.6-7.6c0,1.1,0.2,2,0.5,2.8
			c0.4,0.8,0.9,1.3,1.6,1.7c0.7,0.4,1.5,0.6,2.6,0.6c1.5,0,2.7-0.5,3.5-1.5c0.8-1,1.2-2.5,1.2-4.3v-11.6c0-1.8-0.4-3.3-1.2-4.3
			c-0.8-1-2-1.6-3.5-1.6c-1,0-1.9,0.2-2.6,0.6c-0.7,0.4-1.2,1-1.6,1.8c-0.4,0.8-0.5,1.7-0.5,2.8l-0.8-7.1c1-2.4,2.4-4.2,4-5.5
			c1.6-1.3,3.4-2,5.4-2c2.3,0,4.3,0.6,6,1.7c1.6,1.1,2.9,2.8,3.8,5s1.3,4.8,1.3,8V715c0,3.1-0.4,5.8-1.3,7.9c-0.9,2.2-2.1,3.8-3.8,5
			c-1.7,1.1-3.7,1.7-6,1.7C934,729.6,932.2,729,930.6,727.8z"/>
		<path class="st2" d="M958.5,671.5h10.3v10.2h-10.3V671.5z M958.5,687.9h10.3V729h-10.3V687.9z"/>
		<path class="st2" d="M986.7,727.9c-2.2-1.1-3.9-2.8-5.1-5c-1.2-2.2-1.8-4.8-1.8-7.9v-13.4c0-3,0.6-5.6,1.8-7.8
			c1.2-2.1,2.9-3.8,5.1-4.9c2.2-1.1,4.9-1.7,8.1-1.7c3.1,0,5.8,0.6,8.1,1.7c2.3,1.1,4,2.8,5.1,4.9c1.2,2.1,1.8,4.7,1.8,7.8v13.6
			c0,3-0.6,5.6-1.8,7.8c-1.2,2.1-2.9,3.8-5.1,4.9c-2.3,1.1-5,1.7-8.1,1.7C991.7,729.6,989,729,986.7,727.9z M998.3,718.6
			c0.8-0.9,1.2-2.2,1.2-3.8V702c0-1.6-0.4-2.9-1.2-3.8c-0.8-0.9-2-1.3-3.5-1.3s-2.7,0.4-3.5,1.3c-0.8,0.9-1.2,2.1-1.2,3.8v12.8
			c0,1.7,0.4,2.9,1.2,3.8c0.8,0.9,2,1.3,3.5,1.3C996.3,720,997.5,719.5,998.3,718.6z"/>
		<path class="st2" d="M1021.8,687.9h10.3V729h-10.3V687.9z M1041.7,702c0-1.6-0.4-2.9-1.3-3.8c-0.9-0.9-2.1-1.3-3.6-1.3
			c-1.5,0-2.7,0.4-3.5,1.3c-0.8,0.9-1.2,2.2-1.2,3.8l-0.8-7c1-2.6,2.4-4.5,4-5.8s3.6-2,5.9-2c3.4,0,6.1,1.2,8,3.6
			c1.9,2.4,2.8,5.7,2.8,10V729h-10.3V702z"/>
		<path class="st2" d="M1073.3,729.6c0,0-1.1-0.4-3.3-1.2s-4-1.9-5.5-3.4c-1.5-1.5-2.5-3.3-3.1-5.4l8.3-4.3c0.8,1.5,2,2.7,3.4,3.6
			c1.4,0.9,3,1.3,4.8,1.3c1.6,0,2.9-0.3,3.8-0.9s1.4-1.4,1.4-2.4c0-0.9-0.3-1.7-0.9-2.2c-0.6-0.5-1.3-0.9-2.1-1.2
			c-0.8-0.3-2-0.6-3.6-0.9c-0.3-0.1-0.7-0.2-1-0.3c-0.4-0.1-0.7-0.2-1.1-0.3c-0.1-0.1-0.2-0.1-0.3-0.1c-0.1,0-0.2,0-0.3-0.1
			c-2.3-0.6-4.2-1.2-5.8-1.9c-1.5-0.7-2.8-1.9-3.9-3.5c-1-1.6-1.6-3.7-1.6-6.4c0-2.6,0.6-4.9,1.7-6.8c1.1-1.9,2.8-3.4,5-4.4
			c2.2-1,4.7-1.5,7.7-1.5c2.5,0,4.8,0.4,6.8,1.1c2,0.8,3.7,1.8,5,3.2c1.4,1.4,2.3,3.1,2.9,5.2l-8.3,4.1c-0.7-1.3-1.6-2.4-2.7-3.1
			s-2.4-1.1-3.8-1.1c-1.5,0-2.7,0.3-3.6,0.8c-0.9,0.5-1.3,1.3-1.3,2.3c0,0.8,0.3,1.5,0.9,2c0.6,0.5,1.3,0.9,2.3,1.2
			c0.9,0.3,2.2,0.6,3.9,0.9c0.1,0,0.2,0.1,0.3,0.1c0.1,0,0.3,0,0.4,0c0.1,0.1,0.1,0.1,0.2,0.1s0.1,0,0.2,0c2.6,0.6,4.7,1.2,6.4,1.8
			c1.7,0.7,3.1,1.8,4.2,3.5c1.2,1.7,1.7,4,1.7,7.1c0,2.7-0.6,5-1.8,6.9c-1.2,1.9-3,3.4-5.3,4.5c-2.3,1.1-5,1.6-8.1,1.6
			C1074.6,729.6,1073.3,729.6,1073.3,729.6z"/>
		<path class="st2" d="M1103.8,671.5h10.3V729h-10.3V671.5z M1123.8,702.2c0-1.7-0.4-3-1.3-3.9c-0.9-0.9-2.1-1.3-3.6-1.3
			c-1.5,0-2.7,0.4-3.5,1.3c-0.8,0.9-1.2,2.2-1.2,3.8l-0.7-7.1c1-2.5,2.3-4.5,4-5.8s3.6-2,5.9-2c3.4,0,6.1,1.2,8,3.5
			c1.9,2.4,2.8,5.7,2.8,10V729h-10.3V702.2z"/>
		<path class="st2" d="M1146.1,671.5h10.3v10.2h-10.3V671.5z M1146.1,687.9h10.3V729h-10.3V687.9z"/>
		<path class="st2" d="M1168.5,687.9h10.3v57.7h-10.3V687.9z M1181.7,727.8c-1.6-1.2-2.7-3-3.5-5.2l0.6-7.6c0,1.1,0.2,2,0.5,2.8
			c0.4,0.8,0.9,1.3,1.6,1.7c0.7,0.4,1.5,0.6,2.6,0.6c1.5,0,2.7-0.5,3.5-1.5c0.8-1,1.2-2.5,1.2-4.3v-11.6c0-1.8-0.4-3.3-1.2-4.3
			c-0.8-1-2-1.6-3.5-1.6c-1,0-1.9,0.2-2.6,0.6c-0.7,0.4-1.2,1-1.6,1.8c-0.4,0.8-0.5,1.7-0.5,2.8l-0.8-7.1c1-2.4,2.4-4.2,4-5.5
			c1.6-1.3,3.4-2,5.4-2c2.3,0,4.3,0.6,6,1.7c1.6,1.1,2.9,2.8,3.8,5c0.9,2.2,1.3,4.8,1.3,8V715c0,3.1-0.4,5.8-1.3,7.9
			c-0.9,2.2-2.1,3.8-3.8,5c-1.7,1.1-3.7,1.7-6,1.7C1185.2,729.6,1183.3,729,1181.7,727.8z"/>
	</g>
</g>
<g>
	<g>
		<path class="st2" d="M895.9,613.2h6.8l7.2,32.8l4.3-32.8h8.9l-8.7,48.3h-8.2l-6.7-32.4l-7.1,32.4h-8.2l-8.6-48.3h8.9l4.3,32.8
			L895.9,613.2z"/>
		<path class="st2" d="M936.2,660.6c-1.9-1-3.3-2.3-4.3-4.2c-1-1.8-1.5-4-1.5-6.6v-11.3c0-2.5,0.5-4.7,1.5-6.5
			c1-1.8,2.4-3.2,4.3-4.1c1.9-0.9,4.2-1.4,6.8-1.4c2.6,0,4.9,0.5,6.8,1.4c1.9,0.9,3.3,2.3,4.3,4.1c1,1.8,1.5,4,1.5,6.5v11.4
			c0,2.5-0.5,4.7-1.5,6.5c-1,1.8-2.4,3.2-4.3,4.1s-4.2,1.4-6.8,1.4C940.4,662,938.1,661.5,936.2,660.6z M946,652.8
			c0.7-0.8,1-1.8,1-3.2v-10.8c0-1.4-0.3-2.4-1-3.2c-0.7-0.7-1.7-1.1-2.9-1.1s-2.2,0.4-2.9,1.1c-0.7,0.8-1,1.8-1,3.2v10.8
			c0,1.4,0.3,2.5,1,3.2c0.7,0.8,1.7,1.1,3,1.1C944.3,653.9,945.3,653.5,946,652.8z"/>
		<path class="st2" d="M966.8,627h9v34.5h-9V627z M983.4,635.4c-0.5-0.1-1.1-0.2-1.7-0.2c-1.9,0-3.3,0.6-4.4,1.8
			c-1.1,1.2-1.6,2.8-1.6,4.9l-0.7-8.8c1-2.1,2.2-3.7,3.8-4.8c1.5-1.2,3.2-1.7,5.1-1.7c0.7,0,1.4,0.1,1.9,0.3c0.6,0.2,1.1,0.6,1.5,1
			l-2.6,8.1C984.4,635.7,983.9,635.5,983.4,635.4z"/>
		<path class="st2" d="M1004.6,650.6c0,0.8,0.2,1.4,0.6,1.9c0.4,0.4,1,0.7,1.8,0.7h1.3v8.4h-3.8c-2.7,0-4.8-0.8-6.3-2.4
			c-1.5-1.6-2.3-3.8-2.3-6.7v-39.1h8.6V650.6z"/>
		<path class="st2" d="M1021.1,660.6c-1.4-1-2.4-2.3-3.1-4.1c-0.7-1.8-1.1-4-1.1-6.6v-11.2c0-2.6,0.4-4.8,1.1-6.6
			c0.7-1.8,1.8-3.2,3.1-4.2c1.4-1,3-1.4,4.9-1.4c1.7,0,3.2,0.5,4.6,1.6s2.5,2.6,3.4,4.6l-0.7,6c0-0.9-0.2-1.7-0.5-2.4
			c-0.3-0.6-0.8-1.1-1.3-1.5c-0.6-0.3-1.3-0.5-2.1-0.5c-1.3,0-2.2,0.4-3,1.3s-1.1,2.1-1.1,3.7v10c0,1.5,0.4,2.7,1.1,3.5
			c0.7,0.8,1.7,1.3,3,1.3c0.8,0,1.5-0.2,2.1-0.5s1-0.8,1.3-1.4s0.5-1.4,0.5-2.3l0.5,6.2c-0.7,1.9-1.7,3.3-3,4.4s-2.9,1.6-4.7,1.6
			C1024.1,662,1022.5,661.6,1021.1,660.6z M1033.4,613.2h8.6v48.3h-8.6V613.2z"/>
	</g>
</g>
</svg>
